<svg width="543" height="223" viewBox="0 0 543 223" fill="none" xmlns="http://www.w3.org/2000/svg">
<g filter="url(#filter0_d_31_149)">
<path d="M68.6797 84.625L69.9492 75.25H60.5742L59.3047 84.625H68.6797ZM41.4336 45.0742L42.0195 40.9727H98.1719L97.5859 45.0742H41.4336ZM43.3867 30.9141L43.7773 28.375H90.6523L92.8008 30.9141H43.3867ZM62.7227 59.5273L62.5273 61.1875H71.9023L72.0977 59.5273H95.3398L84.9883 68.6094L92.9961 77.9844L90.0664 98.6875L79.4219 108.062H32.5469L39.3828 59.5273H62.7227ZM96.4141 53.7656L95.8281 58.0625H72.3906L72.9766 53.7656H96.4141ZM63.6016 53.7656L63.0156 58.0625H39.5781L40.1641 53.7656H63.6016ZM42.4102 38.2383L42.8984 34.4297H95.8281L98.6602 37.75L98.5625 38.2383H42.4102ZM97.293 47.418L96.707 51.8125H40.457L41.1406 47.418H97.293ZM128.641 47.418L127.957 51.8125H104.52L105.203 47.418H128.641ZM107.449 30.9141L107.84 28.375H131.277L130.887 30.9141H107.449ZM126.883 59.5273L120.047 108.062H96.6094L103.445 59.5273H126.883ZM106.473 38.2383L106.961 34.4297H130.398L129.91 38.2383H106.473ZM127.664 53.7656L127.078 58.0625H103.641L104.227 53.7656H127.664ZM105.496 45.0742L106.082 40.9727H129.52L128.934 45.0742H105.496ZM136.648 45.0742L137.234 40.9727H193.582L192.996 45.0742H136.648ZM145.535 30.9141L148.465 28.375H195.34L194.949 30.9141H145.535ZM158.133 59.5273L154.617 84.625H163.992L165.262 75.25H160.574L162.527 61.1875H190.652L182.84 117.438H159.402L160.672 108.062H127.859L134.695 59.5273H158.133ZM158.914 53.7656L158.328 58.0625H134.891L135.477 53.7656H158.914ZM137.625 38.2383L137.723 37.75L141.531 34.4297H194.461L193.973 38.2383H137.625ZM192.605 47.418L192.02 51.8125H135.77L136.355 47.418H192.605ZM256.18 84.625L257.449 75.25H248.074L246.805 84.625H256.18ZM228.934 45.0742L229.52 40.9727H285.672L285.086 45.0742H228.934ZM230.887 30.9141L231.277 28.375H278.152L280.301 30.9141H230.887ZM250.223 59.5273L250.027 61.1875H259.402L259.598 59.5273H282.84L272.488 68.6094L280.496 77.9844L277.566 98.6875L266.922 108.062H220.047L226.883 59.5273H250.223ZM283.914 53.7656L283.328 58.0625H259.891L260.477 53.7656H283.914ZM251.102 53.7656L250.516 58.0625H227.078L227.664 53.7656H251.102ZM229.91 38.2383L230.398 34.4297H283.328L286.16 37.75L286.062 38.2383H229.91ZM284.793 47.418L284.207 51.8125H227.957L228.641 47.418H284.793ZM292.898 45.0742L293.484 40.9727H349.734L349.148 45.0742H292.898ZM294.852 30.9141L295.242 28.375H342.117L344.266 30.9141H294.852ZM314.285 59.5273L314.09 61.1875H323.465L323.66 59.5273H347.098L346.902 61.1875L336.16 70.5625L344.266 79.9375L340.262 108.062H316.824L319.852 86.5781L311.844 77.2031L306.18 117.438H282.742L290.848 59.5273H314.285ZM347.977 53.7656L347.391 58.0625H323.855L324.441 53.7656H347.977ZM315.066 53.7656L314.48 58.0625H291.043L291.727 53.7656H315.066ZM293.875 38.2383L294.363 34.4297H347.391L350.223 37.75L350.125 38.2383H293.875ZM348.855 47.418L348.27 51.8125H291.922L292.605 47.418H348.855ZM359.109 45.0742L363.797 40.9727H413.895L413.309 45.0742H359.109ZM375.223 30.9141L378.152 28.375H415.652L415.262 30.9141H375.223ZM378.445 59.5273L376.883 70.5625H386.258L387.82 59.5273H411.258L404.422 108.062H380.984L384.305 84.625H374.93L371.609 108.062H348.172L355.008 59.5273H378.445ZM412.039 53.7656L411.453 58.0625H388.016L388.602 53.7656H412.039ZM381.961 53.7656L378.836 56.5L378.641 58.0625H355.203L355.789 53.7656H381.961ZM366.922 38.2383L371.219 34.4297H414.773L414.285 38.2383H366.922ZM413.016 47.418L412.332 51.8125H356.082L356.766 47.418H413.016ZM444.266 47.418L443.582 51.8125H420.145L420.828 47.418H444.266ZM423.074 30.9141L423.465 28.375H446.902L446.512 30.9141H423.074ZM442.508 59.5273L435.672 108.062H412.234L419.07 59.5273H442.508ZM422.098 38.2383L422.586 34.4297H446.023L445.535 38.2383H422.098ZM443.289 53.7656L442.703 58.0625H419.266L419.852 53.7656H443.289ZM421.121 45.0742L421.707 40.9727H445.145L444.559 45.0742H421.121ZM451.395 51.8125L452.078 47.418H508.328L507.645 51.8125H451.395ZM454.324 30.9141L454.715 28.375H478.152L479.031 30.9141H454.324ZM487.137 30.9141L487.527 28.375H510.965L510.574 30.9141H487.137ZM453.348 38.2383L453.836 34.4297H480.301L481.668 38.2383H453.348ZM486.16 38.2383L486.648 34.4297H510.086L509.598 38.2383H486.16ZM506.57 59.5273L499.734 108.062H476.297L479.715 83.8438L472.977 65.0938L466.922 108.062H443.484L450.32 59.5273H506.57ZM452.371 45.0742L452.957 40.9727H482.645L484.109 45.0742H452.371ZM485.184 45.0742L485.77 40.9727H509.207L508.621 45.0742H485.184ZM507.352 53.7656L506.766 58.0625H450.516L451.102 53.7656H507.352ZM134.5 114.074L135.086 109.973H191.434L190.848 114.074H134.5ZM143.387 99.9141L146.316 97.375H193.191L192.801 99.9141H143.387ZM155.984 128.527L152.469 153.625H161.844L165.359 128.527H188.797L183.23 167.688L172.586 177.062H163.211L161.941 186.438H143.191L144.461 177.062H125.711L132.547 128.527H155.984ZM189.578 122.766L188.992 127.062H165.555L166.141 122.766H189.578ZM156.766 122.766L156.18 127.062H132.742L133.328 122.766H156.766ZM135.477 107.238L135.574 106.75L139.383 103.43H192.312L191.824 107.238H135.477ZM190.457 116.418L189.871 120.812H133.621L134.207 116.418H190.457ZM254.52 116.418L253.836 120.812H230.398L231.082 116.418H254.52ZM200.516 99.9141L200.906 97.375H224.344L223.953 99.9141H200.516ZM233.328 99.9141L233.719 97.375H257.156L256.766 99.9141H233.328ZM199.539 107.238L200.027 103.43H223.465L222.977 107.238H199.539ZM252.762 128.527L246.023 177.062H199.148L191.043 167.688L196.512 128.527H219.949L216.434 153.625H225.809L229.324 128.527H252.762ZM198.562 114.074L199.148 109.973H222.586L222 114.074H198.562ZM220.73 122.766L220.145 127.062H196.707L197.391 122.766H220.73ZM197.586 120.812L198.27 116.418H221.707L221.023 120.812H197.586ZM232.352 107.238L232.84 103.43H256.277L255.789 107.238H232.352ZM253.641 122.766L253.055 127.062H229.52L230.105 122.766H253.641ZM231.375 114.074L231.961 109.973H255.398L254.812 114.074H231.375ZM285.867 116.418L285.184 120.812H261.746L262.43 116.418H285.867ZM264.676 99.9141L265.066 97.375H288.504L288.113 99.9141H264.676ZM284.109 128.527L277.273 177.062H253.836L260.672 128.527H284.109ZM263.699 107.238L264.188 103.43H287.625L287.137 107.238H263.699ZM284.891 122.766L284.305 127.062H260.867L261.453 122.766H284.891ZM262.723 114.074L263.309 109.973H286.746L286.16 114.074H262.723ZM350.418 116.418L349.832 120.812H292.996L293.582 116.418H350.418ZM295.926 99.9141L296.316 97.375H353.152L352.762 99.9141H295.926ZM342.215 128.527L317.312 153.625H345.242L341.922 177.062H285.086L288.406 153.625L313.309 128.527H342.215ZM294.949 107.238L295.438 103.43H352.273L351.785 107.238H294.949ZM347.879 122.766L343.68 127.062H314.773L318.973 122.766H347.879ZM293.973 114.074L294.559 109.973H351.395L350.809 114.074H293.973ZM415.066 116.418L414.48 120.812H357.645L358.23 116.418H415.066ZM360.574 99.9141L360.965 97.375H417.801L417.41 99.9141H360.574ZM406.863 128.527L381.961 153.625H409.891L406.57 177.062H349.734L353.055 153.625L377.957 128.527H406.863ZM359.598 107.238L360.086 103.43H416.922L416.434 107.238H359.598ZM412.527 122.766L408.328 127.062H379.422L383.621 122.766H412.527ZM358.621 114.074L359.207 109.973H416.043L415.457 114.074H358.621Z" fill="white"/>
</g>
<defs>
<filter id="filter0_d_31_149" x="0.546875" y="0.375" width="542.418" height="222.062" filterUnits="userSpaceOnUse" color-interpolation-filters="sRGB">
<feFlood flood-opacity="0" result="BackgroundImageFix"/>
<feColorMatrix in="SourceAlpha" type="matrix" values="0 0 0 0 0 0 0 0 0 0 0 0 0 0 0 0 0 0 127 0" result="hardAlpha"/>
<feOffset dy="4"/>
<feGaussianBlur stdDeviation="16"/>
<feComposite in2="hardAlpha" operator="out"/>
<feColorMatrix type="matrix" values="0 0 0 0 0.529412 0 0 0 0 0.180392 0 0 0 0 0.623529 0 0 0 1 0"/>
<feBlend mode="normal" in2="BackgroundImageFix" result="effect1_dropShadow_31_149"/>
<feBlend mode="normal" in="SourceGraphic" in2="effect1_dropShadow_31_149" result="shape"/>
</filter>
</defs>
</svg>
